 <svg  version="1.0" xmlns="http://www.w3.org/2000/svg"  width="300.000000pt" height="232.000000pt" viewBox="0 0 300.000000 232.000000"  preserveAspectRatio="xMidYMid meet">  <g transform="translate(0.000000,232.000000) scale(0.100000,-0.100000)" fill="#3856cc" stroke="none"> <path d="M1470 1933 c-133 -13 -137 -13 -149 -39 -6 -14 -11 -30 -11 -37 1 -7 7 3 15 21 8 19 21 32 32 32 15 0 14 -3 -6 -19 -13 -10 -21 -23 -18 -28 3 -5 -3 -17 -14 -27 -12 -10 -18 -20 -14 -24 3 -3 10 0 14 7 7 10 10 9 16 -8 3 -11 4 -24 1 -29 -2 -4 -1 -14 4 -21 6 -11 16 -9 46 10 22 13 45 29 52 36 16 15 32 17 32 3 0 -5 -21 -21 -47 -34 -52 -27 -93 -55 -80 -56 5 0 21 8 35 19 33 22 132 72 132 66 0 -3 -9 -14 -20 -25 -11 -11 -20 -17 -20 -14 0 3 -23 -7 -50 -22 -28 -15 -46 -30 -40 -34 7 -5 6 -11 -5 -20 -14 -11 -19 -7 -16 12 0 4 -6 5 -14 2 -9 -4 -15 0 -15 10 0 9 -8 16 -20 16 -16 0 -20 -7 -20 -31 0 -21 -4 -30 -13 -26 -72 28 -419 107 -602 138 -185 32 -466 27 -432 -7 4 -4 13 -1 21 5 11 10 17 8 26 -6 10 -16 11 -16 6 0 -4 13 0 17 18 17 24 0 30 -20 11 -37 -4 -4 -5 -3 -1 4 3 6 2 14 -4 18 -5 3 -10 -3 -10 -14 0 -21 -19 -24 -32 -6 -5 6 -8 5 -8 -2 0 -7 -7 -13 -15 -13 -8 0 -15 -7 -15 -15 0 -9 9 -15 25 -15 13 0 28 -8 33 -17 15 -29 31 -133 46 -303 3 -23 7 -25 72 -31 38 -4 148 -7 245 -8 97 0 191 -4 208 -7 28 -6 32 -10 26 -31 -4 -19 -1 -26 15 -30 25 -7 25 -23 0 -56 -11 -14 -20 -31 -20 -38 0 -7 -3 -9 -7 -6 -9 9 -39 -42 -48 -82 -4 -20 -2 -37 5 -46 15 -19 4 -35 -24 -35 -12 0 -28 -6 -35 -12 -10 -9 -12 -9 -7 -1 3 6 2 14 -2 17 -5 3 -14 -5 -21 -17 -7 -12 -35 -36 -64 -52 -28 -15 -62 -42 -76 -58 -48 -58 -122 -162 -138 -194 -8 -18 -19 -36 -24 -39 -12 -7 16 -60 43 -78 30 -21 29 -73 -3 -98 -61 -48 -89 -81 -89 -103 0 -20 7 -25 37 -31 31 -6 34 -8 18 -15 -11 -4 -15 -8 -10 -8 6 -1 48 -8 93 -16 58 -10 165 -15 342 -16 199 -1 268 -4 297 -15 l38 -15 -42 5 c-27 2 -43 0 -46 -8 -6 -15 66 -14 163 3 42 7 68 7 74 1 6 -6 15 -10 21 -10 5 0 3 5 -5 10 -8 5 -10 10 -4 10 6 0 14 -3 18 -7 11 -11 36 -12 36 -2 0 6 4 7 10 4 12 -7 115 -8 148 -1 12 3 22 2 22 -2 0 -4 13 -7 30 -8 16 -1 27 3 24 8 -3 5 15 6 43 3 26 -4 86 -8 133 -10 47 -1 101 -6 120 -9 19 -3 29 -4 22 0 -6 3 -9 10 -6 16 4 6 -8 9 -30 7 -19 -2 -40 1 -46 7 -12 12 98 3 119 -10 10 -6 12 -5 7 2 -4 8 0 12 11 12 16 1 16 2 2 10 -16 10 -199 10 -199 0 0 -3 -84 -5 -188 -5 -103 -1 -243 -2 -312 -4 -146 -4 -159 -2 -240 44 -65 37 -109 49 -52 15 17 -11 32 -22 32 -25 0 -4 -46 -5 -102 -3 -85 3 -102 6 -100 18 10 41 10 50 0 50 -5 0 -8 -7 -5 -15 4 -8 -5 -22 -21 -33 -22 -15 -48 -19 -132 -20 -67 -2 -100 1 -91 7 8 5 21 7 30 4 14 -4 14 -3 1 6 -11 7 -20 6 -35 -3 -17 -12 -24 -10 -52 11 -30 23 -61 24 -48 2 4 -5 -3 -9 -14 -9 -12 0 -21 4 -21 9 0 5 -9 13 -20 16 -24 8 -50 32 -50 47 0 6 3 8 7 5 3 -4 17 3 30 15 13 12 23 18 23 13 0 -13 41 38 51 63 5 12 14 22 21 22 9 0 8 -3 -2 -10 -13 -8 -12 -10 3 -10 23 0 22 16 -3 33 -12 8 -18 22 -15 35 2 12 -1 24 -6 27 -5 4 -7 11 -3 16 4 6 15 3 28 -9 26 -24 60 -42 79 -42 19 0 30 27 19 47 -8 13 -10 13 -15 -1 -4 -10 -3 -15 3 -11 6 3 10 1 10 -4 0 -30 -96 7 -110 43 -5 11 -9 17 -9 12 -1 -5 -8 -3 -16 4 -11 9 -19 10 -26 3 -7 -7 -4 -16 12 -27 13 -9 20 -16 15 -16 -5 0 -3 -7 4 -15 15 -18 2 -19 -21 -2 -25 19 -33 55 -16 72 8 8 18 11 22 7 4 -4 5 8 2 26 -4 18 -2 32 3 32 6 0 10 -7 10 -15 0 -8 4 -15 10 -15 5 0 6 8 3 18 -6 15 -5 15 10 3 10 -8 20 -11 24 -7 3 3 1 6 -5 6 -6 0 -16 10 -23 21 -8 15 -8 19 0 15 6 -4 14 1 18 11 4 10 9 20 12 23 3 3 13 19 22 35 9 17 20 30 25 29 5 -1 17 7 27 17 10 11 12 19 5 19 -6 0 -9 3 -6 6 4 3 17 -2 31 -11 25 -16 25 -16 8 -60 -9 -24 -20 -47 -24 -51 -13 -14 -7 -27 7 -15 11 9 15 9 19 -1 4 -9 6 -8 6 3 1 18 49 54 58 45 3 -3 0 -12 -7 -21 -10 -12 -10 -15 1 -15 10 0 11 -2 2 -8 -6 -4 -11 -22 -11 -39 1 -18 5 -30 10 -27 4 3 5 16 2 29 -6 26 13 45 22 21 3 -9 10 -13 15 -10 19 11 8 -14 -16 -36 -14 -13 -25 -28 -25 -34 0 -6 5 -4 10 4 9 13 10 13 10 0 0 -13 2 -13 9 0 6 8 8 17 5 21 -2 4 0 10 6 14 5 3 10 1 10 -5 0 -6 5 -8 10 -5 6 4 18 1 26 -6 8 -7 14 -8 13 -3 -3 18 1 34 9 34 5 0 8 -12 7 -27 0 -16 -6 -28 -12 -28 -6 0 -14 -3 -17 -7 -3 -5 -3 -6 1 -3 3 3 13 -1 21 -8 9 -7 13 -7 9 -1 -4 6 2 19 12 28 13 12 21 14 26 6 3 -5 10 -8 15 -5 4 3 11 -2 14 -11 5 -14 9 -14 22 -3 14 12 14 14 -2 26 -12 9 -21 10 -30 2 -9 -7 -19 -1 -37 23 -14 18 -24 34 -22 36 7 8 54 -31 49 -40 -4 -6 3 -5 15 2 17 8 26 8 36 0 9 -8 15 -8 20 0 3 6 11 7 17 4 7 -4 8 -2 4 5 -4 6 -12 9 -17 5 -5 -3 -17 0 -25 7 -13 10 -17 10 -25 -2 -8 -12 -12 -11 -25 6 -8 11 -18 20 -22 20 -4 0 -6 3 -5 7 2 5 0 7 -5 7 -19 -3 -25 2 -12 11 11 7 11 10 2 10 -7 0 -10 4 -7 10 3 5 1 10 -5 10 -7 0 -10 -7 -6 -15 3 -8 2 -15 -3 -15 -14 0 -31 26 -23 35 4 5 1 5 -6 1 -16 -10 -52 20 -52 43 0 14 -2 14 -10 1 -8 -12 -10 -12 -10 -1 0 8 -3 11 -6 8 -9 -9 -47 20 -50 38 -3 17 12 20 21 5 3 -5 12 -10 18 -9 9 0 9 2 0 6 -7 2 -13 9 -13 14 0 4 7 6 15 3 11 -5 13 -2 8 12 -5 13 -3 15 8 9 8 -4 11 -5 7 0 -4 4 -3 14 3 21 8 10 16 11 31 3 11 -6 18 -7 15 -2 -3 5 8 14 25 21 17 6 28 9 25 6 -9 -10 17 -32 30 -27 7 3 13 -2 13 -10 0 -8 7 -18 16 -21 10 -4 13 -2 8 7 -4 6 3 2 15 -10 24 -25 37 -29 43 -12 2 7 9 5 17 -5 12 -14 12 -16 -3 -10 -31 12 -15 -14 27 -42 50 -35 68 -55 62 -71 -2 -7 1 -15 7 -19 7 -5 8 -2 4 7 -4 8 0 5 8 -5 9 -11 16 -16 16 -12 0 4 12 -7 28 -25 15 -18 26 -36 25 -40 -1 -4 4 -13 12 -19 8 -7 15 -19 15 -26 0 -8 7 -14 15 -14 13 0 12 4 -5 22 -24 27 -27 46 -3 27 10 -8 1 6 -19 31 -20 25 -49 55 -64 67 -15 13 -25 25 -22 28 3 3 29 -13 58 -36 50 -40 57 -38 21 5 -13 16 -13 18 -1 10 19 -11 60 -13 54 -2 -3 5 1 10 8 13 17 7 22 54 7 71 -9 11 -8 14 0 14 6 0 14 -7 17 -15 4 -8 10 -13 15 -10 4 3 5 13 2 22 -4 10 -2 14 4 10 5 -4 15 5 21 18 14 31 11 31 -40 -1 -40 -26 -44 -26 -70 -11 -15 9 -28 12 -28 6 0 -5 -9 -4 -19 3 -11 7 -18 15 -15 19 2 4 -1 11 -8 15 -7 4 -10 4 -6 -1 4 -4 2 -15 -4 -24 -7 -9 -9 -13 -4 -9 12 10 48 -11 40 -23 -4 -8 0 -8 12 -1 27 13 71 -7 66 -32 -3 -13 0 -16 10 -10 9 6 9 2 -2 -12 -33 -42 -36 -44 -60 -27 -13 9 -20 11 -16 5 20 -32 -36 0 -99 57 -25 22 -31 26 -16 8 14 -15 20 -27 14 -27 -13 0 -43 33 -43 47 0 16 -78 76 -89 69 -5 -4 -13 -1 -17 5 -5 8 -3 9 7 4 8 -5 1 5 -15 21 -45 45 -61 73 -49 85 8 8 13 7 18 -2 5 -8 4 -10 -3 -5 -7 4 -12 3 -12 -2 0 -11 67 -72 78 -72 4 0 -7 13 -24 28 -17 15 -31 34 -32 42 -4 45 -5 57 -3 73 0 9 6 17 12 17 6 0 9 -6 6 -13 -3 -8 1 -14 8 -14 10 0 11 5 4 19 -13 24 5 24 23 0 21 -27 89 -75 109 -76 11 -1 20 -5 20 -11 1 -19 31 -44 45 -38 9 3 14 0 12 -8 -2 -8 3 -13 10 -11 8 1 11 -2 7 -8 -4 -6 -12 -7 -23 -1 -20 11 -56 -5 -47 -20 8 -12 -6 -11 -25 1 -13 9 -13 10 0 10 12 1 11 3 -3 14 -13 10 -15 15 -5 18 7 3 18 -1 23 -8 6 -8 15 -10 23 -6 8 6 -2 18 -35 39 -44 28 -89 41 -77 22 2 -5 12 -5 21 -2 10 4 14 2 9 -5 -3 -6 -2 -13 4 -17 6 -4 8 -10 5 -15 -3 -4 2 -13 10 -20 13 -11 13 -14 -2 -26 -15 -10 -16 -15 -5 -26 11 -11 12 -10 7 5 -9 21 -2 21 36 2 16 -9 27 -20 24 -26 -4 -5 -11 -7 -16 -4 -5 4 -9 1 -9 -5 0 -6 11 -15 24 -20 13 -5 27 -14 31 -19 3 -6 11 -11 18 -11 6 0 1 7 -11 16 -13 9 -19 20 -15 27 4 7 8 21 8 31 0 11 6 21 14 24 9 3 11 0 6 -8 -5 -8 -4 -11 2 -7 5 4 20 -3 31 -14 12 -11 22 -17 22 -14 0 4 7 -1 16 -9 8 -9 23 -16 32 -15 14 0 14 2 2 6 -30 12 -100 72 -91 77 5 4 13 1 18 -6 11 -18 54 -41 81 -44 12 -1 22 -1 22 1 0 1 -21 20 -47 41 -26 21 -44 33 -39 26 12 -19 -19 -14 -37 6 -10 10 -14 22 -10 27 5 4 2 5 -4 1 -7 -4 -21 -2 -30 4 -17 11 -17 11 1 6 39 -13 -4 21 -54 43 -33 14 -48 26 -44 35 3 9 -3 17 -18 22 -13 4 -23 5 -24 3 0 -2 -8 2 -17 10 -20 16 -23 42 -4 38 6 -1 11 4 10 10 -2 7 3 12 9 10 17 -3 37 -30 31 -40 -5 -9 -2 -12 99 -87 44 -32 69 -46 74 -38 5 7 3 8 -6 3 -9 -5 -11 -4 -6 4 4 6 12 9 17 5 5 -3 6 -10 3 -16 -5 -8 -1 -9 11 -4 16 6 16 4 4 -11 -8 -9 -9 -14 -3 -10 6 4 19 -2 29 -13 15 -16 21 -18 33 -7 11 8 14 8 9 0 -4 -6 -2 -15 5 -20 17 -10 68 -13 68 -3 0 6 -15 10 -52 11 -9 0 -15 6 -13 12 3 7 -7 20 -20 30 -14 10 -25 13 -25 7 0 -5 5 -10 11 -10 5 0 7 -5 4 -10 -9 -15 -25 -2 -25 19 0 21 -15 36 -49 46 -21 6 -23 5 -17 -11 6 -16 4 -15 -13 3 -12 12 -21 28 -21 35 0 10 -2 10 -8 1 -10 -17 -33 -1 -35 25 0 11 -5 18 -9 16 -5 -3 -5 -10 -2 -16 4 -6 -7 0 -24 12 -36 27 -36 38 0 20 13 -7 7 3 -17 24 -22 19 -43 35 -47 36 -5 0 -8 7 -8 16 0 8 5 12 11 8 18 -10 -6 28 -30 50 -12 11 -31 24 -44 30 -24 12 -27 29 -26 131 0 33 0 69 -2 80 -1 11 -2 37 -3 57 0 20 -5 36 -10 35 -5 -1 -11 4 -14 12 -6 16 18 13 128 -19 41 -12 83 -22 93 -22 9 1 17 -4 17 -10 0 -7 5 -6 14 1 11 9 16 9 23 -1 7 -11 53 -21 53 -12 0 10 -62 33 -103 39 -26 4 -47 10 -47 14 0 3 -10 7 -22 7 -13 1 -49 7 -81 13 -32 7 -66 9 -76 6 -25 -8 -34 -47 -21 -93 8 -32 6 -45 -10 -77 -20 -40 -19 -73 6 -110 8 -11 14 -25 14 -32 0 -18 -74 -17 -90 2 -15 18 -4 55 16 55 8 0 12 -4 9 -10 -3 -5 -2 -10 4 -10 23 0 20 20 -5 26 -23 6 -32 1 -61 -35 -39 -46 -57 -54 -40 -17 7 13 16 22 21 19 5 -4 6 -1 3 4 -4 6 4 18 18 27 27 18 65 85 65 113 -1 14 -4 13 -14 -7 -8 -14 -12 -29 -9 -35 4 -5 2 -7 -2 -2 -9 8 -45 -20 -45 -36 0 -5 8 -4 18 3 9 7 -5 -8 -31 -34 -26 -25 -52 -44 -58 -41 -5 4 -9 -4 -9 -17 -1 -21 -2 -21 -11 -5 -6 10 -9 20 -7 21 1 2 24 15 51 30 26 16 44 32 41 38 -4 5 -13 3 -23 -6 -10 -9 -23 -16 -29 -16 -6 0 -18 -7 -26 -16 -14 -14 -16 -13 -14 11 1 14 7 24 13 21 6 -2 11 4 11 14 0 14 -4 16 -17 10 -9 -5 -20 -6 -24 -2 -5 4 -5 1 0 -7 6 -10 2 -12 -14 -6 -17 5 -21 2 -20 -17 0 -22 1 -22 9 -3 8 18 9 18 10 -5 2 -18 4 -20 7 -7 2 9 8 17 12 17 11 0 6 -49 -7 -62 -12 -12 -46 -3 -38 10 3 5 -2 9 -10 9 -10 0 -14 -7 -11 -19 3 -10 1 -18 -4 -18 -5 0 -9 5 -9 11 0 5 -4 7 -10 4 -5 -3 -10 -2 -10 4 0 5 6 12 13 14 6 3 2 6 -10 6 -16 1 -20 -3 -16 -19 6 -23 -4 -25 -30 -6 -13 10 -16 22 -12 45 3 19 1 31 -5 31 -6 0 -10 -8 -9 -17 1 -10 1 -31 0 -48 -1 -22 -4 -26 -10 -16 -5 8 -7 21 -3 29 3 10 1 13 -6 8 -7 -4 -12 -1 -12 9 0 10 5 13 12 9 7 -4 8 -3 4 4 -4 7 -14 12 -22 12 -8 0 -14 5 -14 11 0 5 5 7 10 4 7 -4 9 2 5 18 -6 22 -11 64 -18 136 -1 13 -8 26 -15 29 -6 2 -10 8 -6 13 8 13 44 11 44 -2 0 -6 -8 -8 -17 -5 -17 6 -17 5 -1 -7 10 -8 15 -16 12 -19 -2 -3 2 -8 10 -11 12 -5 15 7 13 73 -1 44 -5 80 -9 80 -5 0 -8 5 -8 11 0 8 4 8 13 2 11 -9 68 -9 112 0 11 3 25 1 30 -3 19 -13 59 -19 70 -10 7 6 24 6 46 -1 19 -5 51 -12 73 -14 53 -5 65 -21 13 -18 -23 2 -35 0 -27 -3 8 -4 21 -12 29 -18 12 -9 13 -8 7 2 -6 11 -1 12 23 9 17 -3 29 -2 26 3 -3 4 12 4 32 0 20 -5 39 -9 42 -8 20 1 50 -16 44 -26 -5 -8 -3 -8 8 0 10 8 31 8 79 -3 36 -9 74 -16 86 -17 11 -1 24 -5 30 -8 8 -5 54 -17 91 -24 6 -1 19 -7 30 -14 16 -10 15 -11 -7 -6 -24 5 -25 5 -5 -11 20 -15 20 -15 -2 -10 -13 3 -26 1 -29 -4 -3 -5 -18 -9 -35 -9 -22 0 -29 -5 -29 -20 0 -11 4 -20 9 -20 5 0 12 -10 15 -22 7 -22 8 -22 15 -4 5 14 10 16 15 8 4 -7 4 -16 1 -22 -3 -5 0 -10 7 -11 9 0 9 -2 -2 -7 -12 -6 -11 -11 9 -31 23 -23 24 -23 18 -2 -4 18 -2 21 13 16 14 -4 17 -1 15 12 -2 10 -4 25 -5 33 -1 9 -5 6 -11 -8 -9 -24 -29 -22 -29 3 0 8 -10 21 -22 29 -22 16 -22 16 9 16 17 0 34 -6 36 -12 3 -7 6 -3 6 8 1 18 -3 20 -25 16 -19 -3 -25 -1 -20 7 4 6 21 11 37 11 20 0 32 6 37 19 9 24 22 27 33 9 7 -10 9 -9 9 4 0 23 28 48 45 42 28 -11 16 -39 -16 -36 -3 1 -6 -6 -6 -14 0 -8 21 -28 45 -45 l45 -30 30 22 c23 17 32 19 35 9 3 -7 11 4 18 25 11 34 11 40 -4 51 -9 6 -23 10 -32 7 -10 -3 -9 1 4 11 11 9 17 16 13 16 -14 0 -77 -34 -77 -42 0 -5 9 -4 21 2 11 7 23 9 26 6 8 -8 -7 -27 -17 -21 -5 3 -14 -4 -20 -15 -10 -20 -8 -19 29 4 46 29 51 31 51 14 0 -12 -69 -77 -82 -78 -5 0 -8 7 -8 15 0 8 -8 15 -17 15 -14 0 -15 2 -5 9 11 7 10 9 -3 14 -9 4 -13 3 -10 -3 7 -11 -18 -14 -28 -3 -8 7 34 39 46 35 5 -1 6 2 2 8 -3 5 5 15 19 22 20 9 23 14 15 25 -14 17 2 17 20 1 10 -10 12 -10 7 -1 -4 7 5 18 24 28 16 8 30 21 30 27 0 9 3 9 11 1 9 -9 8 -18 -5 -37 -9 -15 -12 -26 -6 -26 5 0 10 -5 10 -11 0 -5 -5 -7 -12 -3 -7 5 -8 3 -3 -5 13 -22 24 3 30 68 6 60 5 62 -14 56 -24 -7 -28 7 -7 24 10 9 16 8 26 -4 10 -12 25 -14 64 -9 37 4 47 3 36 -5 -13 -9 -11 -11 7 -11 15 0 20 -5 18 -17 -2 -10 -4 -18 -5 -18 -2 0 -7 -23 -11 -55 -2 -14 -8 -28 -14 -32 -6 -5 -5 -12 5 -17 16 -11 15 -12 -15 -30 -18 -11 -18 -12 7 -7 44 10 47 -26 3 -37 -11 -2 -8 -3 8 -2 20 1 27 -2 25 -14 -3 -15 -23 -24 -82 -36 -50 -10 -23 -14 31 -4 47 9 54 8 75 -13 32 -31 81 -67 91 -67 4 0 19 -7 33 -16 14 -9 28 -14 31 -12 5 5 -51 48 -117 90 -29 19 -36 30 -41 69 -4 25 -11 54 -17 64 -6 12 -5 45 1 92 l11 72 -55 51 c-56 52 -82 70 -96 67 -4 0 -24 -3 -43 -5z m-32 -38 c13 -4 22 -2 22 4 0 6 5 11 11 11 5 0 7 -6 3 -12 -6 -10 -4 -10 7 0 22 20 49 14 82 -20 17 -18 27 -27 22 -19 -5 10 -4 12 4 7 16 -10 6 -23 -24 -28 -17 -4 -29 0 -35 11 -5 9 -10 12 -10 8 0 -5 -12 1 -26 12 -20 16 -30 18 -40 10 -8 -6 -11 -16 -7 -22 4 -6 0 -8 -10 -4 -10 4 -16 2 -14 -5 1 -6 -4 -13 -12 -16 -9 -3 -11 0 -6 8 6 9 4 11 -4 6 -7 -5 -10 -11 -7 -14 3 -3 -2 -15 -11 -26 -18 -21 -18 -21 2 -5 11 9 34 24 52 33 23 11 30 21 26 32 -5 14 -3 14 15 3 21 -13 21 -14 -11 -33 -18 -10 -43 -26 -57 -36 -57 -39 -79 -31 -41 14 15 18 15 18 -6 7 -41 -21 -24 3 22 32 45 29 62 47 26 28 -10 -6 -21 -7 -25 -4 -3 3 -6 1 -6 -6 0 -7 -5 -9 -12 -5 -6 4 -8 3 -4 -4 3 -6 2 -13 -4 -17 -19 -12 -10 24 10 38 11 8 17 17 12 22 -7 7 1 6 56 -10z m-1071 -119 c-3 -8 0 -19 6 -26 9 -10 9 -11 -2 -5 -11 6 -13 3 -9 -13 4 -15 2 -22 -8 -22 -8 0 -14 5 -14 11 0 5 -4 7 -10 4 -5 -3 -10 3 -10 15 0 12 4 18 10 15 6 -4 10 -3 9 2 -1 4 1 21 6 37 7 24 9 26 17 12 5 -10 7 -23 5 -30z m-87 -16 c0 -5 -5 -10 -11 -10 -5 0 -7 5 -4 10 3 6 8 10 11 10 2 0 4 -4 4 -10z m877 -156 c-3 -3 -12 -4 -19 -1 -8 3 -5 6 6 6 11 1 17 -2 13 -5z m-332 -131 c3 -39 1 -51 -5 -38 -10 23 -13 112 -4 102 3 -3 8 -32 9 -64z m115 -155 c0 -6 -7 -5 -15 2 -8 7 -15 17 -15 22 0 6 7 5 15 -2 8 -7 15 -17 15 -22z m35 -138 c8 -13 -5 -13 -25 0 -13 8 -13 10 2 10 9 0 20 -4 23 -10z m46 -97 c13 -15 12 -15 -8 -4 -24 12 -29 21 -14 21 5 0 15 -7 22 -17z m-137 -48 c3 -9 0 -15 -9 -15 -8 0 -15 7 -15 15 0 8 4 15 9 15 5 0 11 -7 15 -15z m202 -29 c1 -9 -2 -16 -8 -14 -6 2 -12 12 -14 22 -1 9 2 16 8 14 6 -2 12 -12 14 -22z m141 -12 c-7 -7 -37 7 -37 17 0 6 9 5 21 -1 11 -7 19 -14 16 -16z m-142 -24 c-3 -5 -11 -10 -16 -10 -6 0 -7 5 -4 10 3 6 11 10 16 10 6 0 7 -4 4 -10z m-290 -133 c57 -43 61 -47 48 -47 -6 0 -19 7 -27 16 -17 17 -19 14 -10 -10 3 -9 10 -14 14 -11 14 9 22 -14 11 -32 -6 -10 -11 -13 -11 -6 0 7 -6 10 -14 7 -9 -4 -13 2 -11 20 2 14 -1 28 -6 32 -5 3 -7 10 -4 15 4 5 1 9 -5 9 -7 0 -9 -8 -5 -22 7 -22 6 -22 -11 -6 -14 14 -15 21 -6 30 9 9 5 16 -18 30 -37 22 -47 23 -30 3 7 -9 11 -17 9 -18 -2 -1 -13 -9 -24 -17 -20 -14 -20 -14 -2 7 11 13 14 23 8 27 -6 4 -8 13 -4 22 6 17 20 9 98 -49z m286 36 c13 -16 12 -17 -3 -4 -10 7 -18 15 -18 17 0 8 8 3 21 -13z m-517 -498 c19 -14 19 -15 -5 -15 -16 0 -26 6 -26 15 0 19 7 18 31 0z"/> <path d="M1536 1798 c3 -4 11 -5 19 -1 21 7 19 12 -4 10 -11 0 -18 -5 -15 -9z"/> <path d="M596 1792 c-2 -4 7 -12 20 -19 13 -6 26 -7 29 -2 3 4 13 6 23 3 14 -5 14 -3 -2 6 -15 10 -20 9 -27 -1 -5 -9 -9 -9 -9 -3 0 14 -27 26 -34 16z"/> <path d="M1305 1785 c-3 -8 -7 -21 -9 -27 -2 -8 6 -14 20 -14 22 -2 22 0 8 20 -8 13 -11 26 -7 29 3 4 3 7 -1 7 -3 0 -9 -7 -11 -15z"/> <path d="M1574 1788 c-4 -7 -3 -8 5 -4 6 4 18 3 26 -4 10 -8 15 -8 21 1 4 8 3 9 -4 5 -7 -4 -12 -2 -12 3 0 15 -27 14 -36 -1z"/> <path d="M403 1752 c-1 -40 0 -41 21 -30 11 7 25 12 29 13 4 0 12 6 16 14 5 8 15 12 23 9 7 -3 24 2 36 12 22 18 21 18 -21 13 -23 -3 -49 -12 -58 -19 -8 -8 -22 -14 -29 -14 -9 0 -7 5 6 14 10 8 15 18 11 22 -4 5 -12 2 -16 -5 -7 -10 -9 -11 -13 -1 -2 7 -4 -6 -5 -28z"/> <path d="M558 1772 c-10 -2 -18 -10 -18 -17 0 -9 6 -12 15 -9 8 4 15 11 15 18 0 6 4 6 9 -3 5 -7 14 -12 20 -10 17 6 -21 26 -41 21z"/> <path d="M1535 1769 c-4 -6 -4 -13 -1 -16 3 -4 6 -1 6 6 0 7 5 9 12 5 7 -4 8 -3 4 4 -9 15 -13 15 -21 1z"/> <path d="M1608 1753 c7 -3 16 -2 19 1 4 3 -2 6 -13 5 -11 0 -14 -3 -6 -6z"/> <path d="M498 1738 c-16 -5 -28 -16 -28 -24 0 -8 -7 -14 -15 -14 -8 0 -15 -4 -15 -10 0 -13 1 -13 38 6 34 16 44 28 15 17 -11 -5 -14 -3 -9 6 5 7 16 11 25 8 11 -2 18 1 18 9 0 8 -1 14 -1 13 -1 0 -13 -5 -28 -11z"/> <path d="M637 1732 c-11 -2 -28 -13 -39 -24 -11 -11 -26 -17 -33 -14 -9 3 -12 0 -9 -9 5 -12 10 -12 32 -1 15 7 32 11 39 9 11 -4 93 33 93 41 0 5 -58 3 -83 -2z m-2 -22 c3 -5 1 -10 -4 -10 -6 0 -11 5 -11 10 0 6 2 10 4 10 3 0 8 -4 11 -10z"/> <path d="M1460 1730 c-9 -6 -10 -10 -3 -10 6 0 15 5 18 10 8 12 4 12 -15 0z"/> <path d="M759 1728 c-1 -5 -2 -11 -3 -15 -1 -5 -5 -14 -10 -22 -6 -10 -5 -12 2 -7 7 4 12 3 12 -3 0 -5 -4 -13 -10 -16 -5 -3 -10 -13 -10 -22 0 -9 -12 -31 -26 -50 -31 -41 -22 -60 10 -20 12 15 29 26 37 24 8 -2 11 -2 7 0 -11 6 -10 47 2 78 7 17 7 32 0 43 -5 9 -10 14 -11 10z"/> <path d="M1565 1714 c-20 -15 -12 -17 19 -5 11 4 15 10 10 13 -5 4 -18 0 -29 -8z"/> <path d="M726 1703 c-4 -5 -11 -8 -14 -9 -21 -3 -41 -18 -35 -27 4 -6 0 -8 -11 -4 -11 4 -15 3 -10 -4 4 -8 -1 -9 -17 -5 -18 5 -20 5 -8 -3 20 -13 59 -3 59 15 0 8 6 11 15 8 22 -9 19 -20 -12 -49 -25 -23 -28 -23 -35 -7 -6 14 -10 6 -7 -14 1 -7 -22 -24 -33 -24 -4 0 -5 7 -2 15 4 8 1 15 -6 15 -6 0 -8 -4 -5 -10 3 -5 2 -10 -2 -10 -9 0 -11 -42 -2 -48 5 -4 59 16 59 22 0 3 -8 3 -17 0 -10 -3 -5 5 12 18 68 53 78 65 80 96 2 35 2 35 -9 25z"/> <path d="M1018 1693 c7 -3 16 -2 19 1 4 3 -2 6 -13 5 -11 0 -14 -3 -6 -6z"/> <path d="M409 1690 c-6 -33 -4 -47 8 -43 7 3 13 8 13 12 0 8 -19 37 -21 31z"/> <path d="M516 1675 c-11 -8 -18 -15 -15 -16 53 -7 80 -6 84 1 3 6 -1 7 -10 4 -9 -4 -21 0 -28 9 -11 14 -14 14 -31 2z"/> <path d="M859 1664 c-14 -37 -6 -39 15 -4 10 17 13 30 6 30 -6 0 -15 -12 -21 -26z"/> <path d="M887 1649 c-26 -30 -15 -34 13 -4 13 14 19 25 14 25 -5 0 -18 -9 -27 -21z"/> <path d="M468 1653 c7 -3 16 -2 19 1 4 3 -2 6 -13 5 -11 0 -14 -3 -6 -6z"/> <path d="M964 1648 c-5 -7 -3 -8 5 -3 8 4 25 -2 42 -14 16 -12 33 -19 38 -17 5 3 11 -1 14 -8 4 -9 -1 -16 -11 -19 -12 -3 -11 -4 3 -3 11 0 26 -3 33 -8 7 -4 16 -5 19 -2 4 3 1 6 -7 6 -10 0 -10 3 0 15 10 12 8 16 -15 25 -15 6 -30 8 -34 6 -4 -3 -20 4 -37 15 -34 22 -40 23 -50 7z"/> <path d="M1545 1650 c-3 -5 -1 -10 4 -10 6 0 11 5 11 10 0 6 -2 10 -4 10 -3 0 -8 -4 -11 -10z"/> <path d="M603 1630 c-13 -5 -23 -11 -23 -14 0 -7 40 6 46 15 6 10 6 10 -23 -1z"/> <path d="M913 1628 c-4 -7 -9 -22 -10 -33 -2 -14 0 -16 5 -7 7 10 11 10 22 -3 7 -9 26 -25 41 -35 22 -17 28 -17 32 -5 4 10 1 12 -10 8 -12 -5 -14 -3 -8 8 4 8 5 11 0 7 -4 -4 -17 -2 -28 4 -20 10 -20 11 4 24 18 10 20 13 7 14 -9 0 -20 -5 -23 -10 -5 -8 -11 -7 -21 1 -11 9 -11 15 -3 25 6 8 9 14 6 14 -3 0 -9 -6 -14 -12z"/> <path d="M1254 1622 c-8 -12 -7 -38 2 -92 7 -41 13 -90 14 -109 0 -26 3 -32 16 -27 8 3 12 2 9 -4 -3 -6 1 -7 9 -4 20 8 21 23 2 30 -14 5 -32 65 -41 131 -2 18 -6 37 -10 43 -4 6 -1 18 6 26 6 8 10 16 8 19 -3 2 -10 -4 -15 -13z"/> <path d="M374 1615 c16 -12 22 -12 35 -2 12 10 14 9 9 -4 -4 -9 -1 -16 6 -16 7 0 13 8 13 18 2 17 -12 20 -34 6 -6 -4 -14 -3 -18 3 -3 5 -12 10 -18 10 -7 0 -3 -7 7 -15z"/> <path d="M980 1626 c0 -2 7 -7 16 -10 8 -3 12 -2 9 4 -6 10 -25 14 -25 6z"/> <path d="M1547 1618 c-16 -12 -16 -14 5 -27 20 -13 22 -12 11 1 -10 11 -10 17 -1 26 16 16 6 15 -15 0z"/> <path d="M505 1610 c-3 -5 -2 -10 4 -10 6 0 8 -7 5 -15 -4 -8 -1 -15 5 -15 6 0 11 7 11 16 0 8 5 12 10 9 6 -3 10 -2 10 3 0 6 -7 13 -16 16 -21 8 -22 8 -29 -4z"/> <path d="M560 1611 c0 -6 4 -13 10 -16 6 -3 7 1 4 9 -7 18 -14 21 -14 7z"/> <path d="M682 1588 c-7 -7 -12 -20 -12 -29 0 -19 -25 -43 -38 -35 -5 3 -9 -1 -9 -9 0 -17 13 -20 22 -5 4 6 10 8 15 5 9 -6 24 24 21 43 -1 8 3 20 10 28 14 17 8 19 -9 2z"/> <path d="M1327 1579 c3 -10 9 -16 14 -13 13 8 11 21 -5 27 -10 4 -12 0 -9 -14z"/> <path d="M1495 1590 c-3 -5 -2 -10 4 -10 5 0 13 5 16 10 3 6 2 10 -4 10 -5 0 -13 -4 -16 -10z"/> <path d="M467 1575 c-10 -7 -14 -16 -9 -19 5 -3 8 -18 6 -33 -2 -18 -1 -21 3 -8 6 20 6 20 15 0 8 -20 8 -20 4 0 -2 11 -7 28 -11 38 -6 13 -3 16 9 11 9 -3 16 -1 16 4 0 18 -14 21 -33 7z"/> <path d="M1454 1582 c5 -8 0 -12 -13 -12 -38 0 -101 -32 -122 -61 -23 -33 -12 -40 15 -10 25 28 104 63 125 56 34 -10 54 -41 42 -63 -8 -15 -8 -22 2 -25 7 -3 5 -6 -5 -6 -10 -1 -22 -10 -28 -20 -17 -32 -12 -33 21 -1 21 19 29 35 25 46 -5 12 -2 15 10 10 8 -3 18 -6 20 -6 2 0 4 -7 4 -15 0 -9 9 -15 24 -15 14 0 28 -5 32 -12 4 -6 3 -8 -4 -4 -6 3 -16 0 -24 -7 -7 -8 -38 -22 -68 -32 -63 -20 -78 -30 -50 -32 11 -1 20 2 20 6 0 4 16 7 35 6 26 -2 35 1 35 12 0 10 7 14 20 10 11 -3 18 0 17 6 -2 11 69 28 78 19 11 -11 4 -22 -24 -37 -53 -27 -95 -71 -86 -92 7 -16 9 -15 15 7 5 14 8 22 9 19 1 -4 16 8 35 27 19 19 43 34 55 34 25 0 26 -8 5 -38 -9 -13 -14 -25 -11 -28 2 -3 12 7 21 20 10 17 22 23 32 19 14 -5 14 -3 3 16 -8 11 -17 21 -22 21 -4 0 -11 10 -16 23 -6 16 -23 27 -53 36 -23 7 -51 22 -61 32 -10 10 -24 19 -32 19 -8 0 -15 6 -15 13 0 13 -32 46 -59 62 -9 5 -12 4 -7 -3z"/> <path d="M392 1555 c0 -16 2 -22 5 -12 2 9 2 23 0 30 -3 6 -5 -1 -5 -18z"/> <path d="M415 1571 c-3 -5 2 -17 11 -25 8 -9 11 -16 6 -16 -6 0 -9 -7 -8 -15 3 -19 13 -28 13 -12 0 6 4 20 8 30 4 10 3 17 -4 17 -6 0 -8 7 -5 15 7 16 -11 21 -21 6z"/> <path d="M903 1554 c26 -29 27 -55 2 -34 -9 7 -12 4 -11 -11 0 -13 8 -23 18 -25 11 -1 15 3 11 12 -4 10 0 12 11 8 9 -3 16 -8 16 -11 0 -12 -22 -43 -31 -43 -6 0 -7 6 -3 13 4 6 3 9 -1 4 -5 -4 -10 -18 -12 -30 -2 -17 -1 -19 7 -7 10 16 12 11 14 -34 1 -17 8 -31 16 -34 13 -3 13 -2 0 7 -13 9 -8 15 12 12 8 -1 5 20 -6 37 -15 24 1 24 24 0 11 -13 24 -23 28 -23 17 -1 61 -38 56 -47 -4 -5 -13 -3 -22 5 -10 8 -28 20 -42 27 -23 12 -24 12 -11 -3 7 -10 10 -17 6 -17 -5 0 0 -9 9 -19 13 -15 14 -21 5 -27 -7 -4 -15 -2 -17 4 -2 7 -7 12 -12 12 -4 0 -3 -11 3 -25 7 -14 18 -25 25 -25 8 0 12 -6 9 -12 -4 -14 51 -60 64 -53 4 3 9 2 11 -2 1 -5 17 -16 33 -25 17 -10 29 -22 27 -28 -1 -7 2 -9 7 -6 13 8 42 -4 35 -15 -3 -5 -1 -8 4 -7 5 2 22 -10 36 -26 18 -18 34 -26 46 -23 11 3 21 -1 24 -9 3 -8 10 -14 16 -14 5 0 2 9 -7 19 -9 11 -22 17 -30 14 -17 -7 -45 16 -36 30 3 5 1 7 -4 4 -6 -4 -14 0 -17 9 -4 11 -2 15 8 11 10 -4 13 -1 9 8 -3 8 -9 12 -14 9 -5 -3 -9 -1 -9 5 0 5 -10 13 -22 16 -42 13 -109 56 -102 67 4 7 10 5 16 -3 8 -11 9 -10 4 3 -3 10 -1 20 4 23 6 4 10 12 10 18 0 9 -2 9 -8 0 -5 -8 -22 -2 -60 21 -29 18 -49 35 -46 39 4 4 16 0 26 -10 10 -9 18 -13 18 -9 0 4 10 -2 22 -14 21 -19 23 -19 32 -3 5 10 10 19 12 21 1 2 12 -2 24 -8 12 -6 24 -9 26 -7 3 3 -8 12 -25 20 -28 14 -31 14 -36 -4 -8 -23 -18 -24 -36 -2 -12 15 -12 16 4 10 10 -4 16 -3 12 2 -11 18 27 30 49 16 12 -7 32 -15 46 -17 14 -2 28 -7 31 -12 9 -12 31 3 23 16 -4 6 -2 8 4 4 5 -3 13 0 15 6 3 7 6 3 6 -10 1 -25 22 -26 29 -1 3 11 1 11 -8 -1 -9 -12 -10 -11 -8 10 4 33 -27 39 -53 11 -17 -18 -23 -19 -42 -9 -12 7 -28 11 -36 9 -7 -1 -10 2 -7 7 12 20 -20 19 -42 -2 -22 -19 -24 -20 -33 -3 -6 9 -15 17 -21 17 -6 0 -21 12 -34 28 -13 15 -24 23 -24 19 0 -4 -9 -3 -20 3 -16 9 -18 15 -10 31 9 15 15 17 30 9 30 -16 35 -12 11 9 -13 11 -20 25 -16 30 6 10 -7 15 -27 12 -5 0 -8 4 -8 11 0 6 -3 8 -7 5 -3 -4 -18 3 -32 15 -24 21 -24 21 2 -8z m54 -38 c0 -8 -6 -12 -15 -9 -11 5 -11 7 0 14 7 5 13 9 14 9 0 0 1 -6 1 -14z m37 -102 c3 -8 2 -12 -4 -9 -6 3 -10 10 -10 16 0 14 7 11 14 -7z m49 -108 c9 -7 17 -19 17 -25 0 -7 4 -10 9 -6 5 3 12 1 15 -4 9 -14 -12 -24 -27 -14 -7 4 -5 1 5 -8 9 -9 15 -19 11 -22 -9 -9 -54 25 -50 37 6 14 -18 37 -29 28 -5 -4 -2 1 5 11 16 20 20 21 44 3z m164 -152 c-6 -7 -57 18 -57 27 0 4 14 1 31 -8 16 -8 28 -17 26 -19z"/> <path d="M1304 1559 c0 -10 4 -19 8 -19 4 0 8 6 8 14 0 8 -4 17 -8 20 -4 2 -8 -4 -8 -15z"/> <path d="M1562 1570 c-18 -4 -36 -11 -40 -14 -8 -9 49 1 80 13 28 12 6 12 -40 1z"/> <path d="M1029 1563 c-1 -5 -1 -11 0 -15 0 -5 -5 -8 -11 -8 -7 0 -5 -5 5 -11 10 -6 25 -8 33 -5 8 3 17 -1 20 -9 3 -7 12 -11 20 -8 8 3 21 0 28 -6 11 -9 16 -9 22 1 4 7 4 10 0 6 -4 -3 -16 2 -25 11 -11 11 -31 17 -53 17 -23 -1 -35 3 -35 12 0 7 7 10 14 8 8 -3 11 -1 8 4 -7 12 -24 13 -26 3z"/> <path d="M496 1537 c3 -10 9 -15 12 -12 3 3 0 11 -7 18 -10 9 -11 8 -5 -6z"/> <path d="M531 1533 c-7 -8 -10 -17 -7 -20 9 -9 29 13 25 25 -2 6 -10 3 -18 -5z"/> <path d="M560 1529 c0 -5 5 -7 10 -4 6 3 10 8 10 11 0 2 -4 4 -10 4 -5 0 -10 -5 -10 -11z"/> <path d="M741 1506 c-16 -19 -11 -29 8 -17 7 5 12 14 9 21 -3 9 -8 7 -17 -4z"/> <path d="M1595 1510 c-20 -9 -20 -9 0 -8 11 0 31 4 45 8 l25 8 -25 0 c-14 0 -34 -3 -45 -8z"/> <path d="M500 1493 c0 -10 5 -25 10 -33 8 -12 10 -9 10 12 0 15 -4 30 -10 33 -5 3 -10 -2 -10 -12z"/> <path d="M1440 1495 c-7 -8 -16 -12 -21 -9 -5 3 -9 0 -9 -6 0 -7 7 -10 15 -7 8 4 17 2 20 -3 4 -6 1 -10 -6 -10 -7 0 -9 -3 -6 -6 8 -8 37 14 37 28 0 5 -5 6 -12 2 -8 -5 -9 -2 -5 9 8 21 3 22 -13 2z"/> <path d="M1030 1492 c0 -4 10 -9 22 -9 18 -2 20 0 8 7 -18 12 -30 13 -30 2z"/> <path d="M1220 1486 c0 -15 21 -56 28 -56 10 0 9 30 -2 48 -7 11 -26 17 -26 8z"/> <path d="M1340 1480 c0 -5 -7 -10 -15 -10 -8 0 -15 -9 -15 -20 0 -20 1 -20 23 -3 23 17 32 43 15 43 -4 0 -8 -4 -8 -10z"/> <path d="M1377 1479 c7 -7 15 -10 18 -7 3 3 -2 9 -12 12 -14 6 -15 5 -6 -5z"/> <path d="M450 1468 c0 -3 9 -6 20 -5 11 1 20 5 20 9 0 3 -9 6 -20 5 -11 -1 -20 -5 -20 -9z"/> <path d="M1080 1471 c0 -6 4 -13 10 -16 6 -3 7 1 4 9 -7 18 -14 21 -14 7z"/> <path d="M1025 1461 c-3 -6 -13 -8 -23 -5 -16 5 -16 5 0 -9 10 -8 16 -17 13 -20 -3 -4 -2 -5 1 -2 4 2 20 -5 36 -17 35 -25 55 -13 32 20 -14 21 -42 33 -29 13 3 -5 1 -12 -4 -16 -6 -3 -8 3 -6 15 4 21 -10 36 -20 21z m58 -45 c4 -10 1 -13 -9 -9 -15 6 -19 23 -5 23 5 0 11 -7 14 -14z"/> <path d="M1115 1460 c-3 -5 -1 -10 4 -10 6 0 11 5 11 10 0 6 -2 10 -4 10 -3 0 -8 -4 -11 -10z"/> <path d="M1699 1453 c15 -29 48 -48 48 -28 0 8 -5 13 -11 12 -6 -1 -9 5 -8 13 2 8 0 12 -4 8 -4 -4 -14 -2 -22 5 -13 10 -14 9 -3 -10z"/> <path d="M1151 1451 c-9 -6 -10 -11 -2 -15 6 -4 11 -1 11 6 0 10 3 9 10 -2 5 -8 12 -12 15 -9 10 11 -20 28 -34 20z"/> <path d="M1390 1449 c0 -5 5 -7 10 -4 6 3 10 8 10 11 0 2 -4 4 -10 4 -5 0 -10 -5 -10 -11z"/> <path d="M1340 1431 c0 -18 18 -21 30 -6 10 13 9 15 -9 15 -11 0 -21 -4 -21 -9z"/> <path d="M1112 1414 c10 -10 20 -15 24 -12 3 4 -5 12 -18 18 -22 12 -22 12 -6 -6z"/> <path d="M1822 1421 c-10 -6 -4 -12 20 -24 47 -24 90 -65 82 -79 -5 -8 -11 -6 -20 6 -7 10 -15 13 -18 7 -4 -6 -13 -4 -24 7 -12 11 -15 20 -8 25 7 5 4 7 -6 3 -10 -3 -18 -2 -18 3 0 20 -36 48 -53 42 -18 -7 -18 -8 -1 -21 14 -12 16 -12 10 -1 -6 9 -4 12 5 9 8 -3 15 -10 15 -16 1 -7 2 -17 3 -24 0 -6 4 -9 7 -5 3 3 15 -3 27 -13 12 -11 30 -25 40 -32 10 -7 19 -23 19 -35 2 -14 7 -19 17 -15 10 4 11 7 3 10 -7 2 -12 11 -12 19 0 12 3 13 13 4 8 -6 17 -8 20 -4 4 3 7 1 7 -5 0 -7 7 -12 16 -12 12 0 9 6 -10 21 -14 11 -23 25 -20 31 4 6 16 -2 29 -18 13 -16 21 -32 19 -35 -2 -3 8 -12 21 -19 14 -7 25 -17 25 -22 0 -11 -18 -10 -25 2 -3 5 -16 15 -28 21 l-22 10 23 -20 c26 -23 28 -32 5 -25 -15 5 -15 4 -3 -4 8 -6 18 -8 22 -6 11 7 50 -21 41 -29 -3 -4 -1 -7 6 -7 6 0 32 -21 56 -47 32 -34 43 -54 39 -68 -4 -16 -3 -17 5 -5 10 14 15 7 12 -13 -1 -5 4 -5 10 -1 9 5 10 1 7 -14 -4 -12 -2 -20 3 -17 11 7 42 -21 60 -55 17 -33 20 -50 6 -50 -5 0 -7 -3 -4 -6 4 -4 13 -2 21 5 11 9 14 8 12 -6 0 -10 4 -17 9 -16 6 0 18 -10 28 -24 19 -24 19 -24 -2 -30 -12 -3 -21 -10 -21 -15 0 -5 -4 -6 -10 -3 -5 3 -10 1 -10 -4 0 -6 -20 -16 -45 -22 -25 -6 -42 -15 -40 -20 3 -4 13 -6 23 -3 30 10 142 65 142 70 0 3 -18 28 -39 57 -22 29 -54 73 -73 99 -65 91 -236 313 -254 330 -26 24 -142 118 -146 118 -2 0 -9 -4 -16 -9z"/> <path d="M750 1410 c-8 -5 -10 -10 -5 -10 6 0 17 5 25 10 8 5 11 10 5 10 -5 0 -17 -5 -25 -10z"/> <path d="M1370 1398 c-25 -11 -47 -25 -48 -29 -2 -5 -8 -7 -13 -3 -5 3 -9 -2 -9 -11 0 -11 5 -15 14 -12 7 3 19 0 25 -6 8 -8 9 -5 7 9 -3 14 1 20 15 20 10 0 19 -4 19 -8 0 -4 7 -8 15 -8 12 0 13 4 5 19 -15 28 -13 33 10 26 15 -5 18 -3 14 9 -3 9 -7 16 -8 15 0 0 -21 -10 -46 -21z"/> <path d="M1170 1391 c0 -14 29 -21 36 -9 4 7 3 8 -4 4 -7 -4 -12 -2 -12 3 0 6 -4 11 -10 11 -5 0 -10 -4 -10 -9z"/> <path d="M1415 1370 c3 -5 8 -10 11 -10 2 0 4 5 4 10 0 6 -5 10 -11 10 -5 0 -7 -4 -4 -10z"/> <path d="M1740 1376 c0 -2 7 -9 15 -16 13 -11 14 -10 9 4 -5 14 -24 23 -24 12z"/> <path d="M1508 1363 c7 -3 16 -2 19 1 4 3 -2 6 -13 5 -11 0 -14 -3 -6 -6z"/> <path d="M1535 1350 c-4 -6 -13 -9 -19 -7 -7 3 -13 -1 -13 -9 0 -18 8 -18 33 0 10 8 16 17 12 21 -3 3 -9 1 -13 -5z"/> <path d="M1360 1341 c0 -10 19 -25 25 -20 1 2 -3 10 -11 17 -8 7 -14 8 -14 3z"/> <path d="M1732 1332 c-25 -35 -59 -112 -50 -112 5 0 21 26 35 57 l26 57 12 -48 c7 -27 16 -51 21 -55 11 -7 54 -68 54 -76 0 -19 -25 3 -51 46 -30 48 -53 64 -29 19 9 -16 8 -28 -2 -50 -7 -16 -16 -26 -20 -24 -4 3 -8 0 -8 -6 0 -7 7 -10 15 -6 8 3 15 1 15 -4 0 -6 17 -29 38 -52 27 -30 32 -40 17 -35 -17 6 -16 4 3 -11 22 -17 55 -22 66 -11 3 3 -4 10 -14 17 -17 10 -20 10 -20 -4 0 -8 -4 -13 -10 -9 -5 3 -7 11 -4 18 2 7 -9 26 -26 42 -28 27 -42 53 -20 40 5 -3 20 1 34 10 23 16 25 15 52 -20 17 -23 30 -32 34 -25 5 8 9 6 14 -5 8 -23 8 -27 -3 -20 -5 3 -12 1 -16 -5 -10 -16 -23 -12 -21 6 0 9 -5 19 -13 22 -9 3 -11 0 -6 -8 6 -10 4 -12 -8 -7 -27 10 -20 2 22 -28 22 -15 45 -24 50 -20 6 3 11 1 11 -5 0 -6 4 -9 9 -6 15 9 56 -44 53 -68 -2 -13 4 -31 14 -40 30 -30 8 -27 -66 9 -39 20 -70 38 -69 39 8 7 69 -7 64 -14 -3 -5 4 -6 16 -3 20 5 20 7 4 16 -10 5 -39 11 -64 12 -36 1 -45 5 -43 18 2 11 -2 15 -12 11 -18 -7 -110 81 -101 96 4 6 1 9 -7 8 -7 -2 -14 7 -16 20 -4 24 -17 29 -28 10 -4 -6 -3 -9 2 -5 5 3 14 -6 21 -19 6 -14 7 -26 2 -30 -5 -3 -9 0 -9 5 0 25 -16 9 -17 -16 0 -16 1 -20 4 -10 4 15 7 16 19 6 9 -7 14 -8 12 -3 -2 5 1 9 7 9 5 0 8 -6 7 -14 -2 -7 1 -10 7 -7 5 4 12 -2 16 -13 3 -11 11 -21 18 -24 7 -3 31 -19 55 -37 38 -27 42 -33 30 -47 -12 -15 -11 -15 8 -3 19 11 25 10 50 -7 30 -22 131 -59 139 -51 2 2 -9 20 -25 40 -21 25 -26 38 -18 46 8 8 1 20 -23 44 -18 18 -34 35 -34 38 -2 16 -57 90 -64 86 -8 -5 -51 46 -51 60 0 4 12 -3 27 -17 15 -13 8 -1 -16 29 -24 28 -46 50 -51 47 -4 -3 -11 2 -14 11 -4 10 -2 13 7 8 6 -4 2 4 -10 18 -13 13 -23 34 -23 46 0 28 -14 35 -28 14z m99 -135 c12 -22 12 -22 -10 -3 -11 11 -21 23 -21 28 0 14 19 -1 31 -25z m-41 -37 c20 -20 15 -30 -13 -26 -23 3 -30 13 -24 31 8 20 13 19 37 -5z m153 -120 c10 -12 9 -12 -5 -1 -12 9 -18 10 -18 3 0 -6 -7 -9 -15 -6 -8 4 -13 10 -10 14 7 12 33 6 48 -10z"/> <path d="M1780 1346 c0 -2 13 -14 29 -26 23 -15 31 -17 37 -8 4 7 4 10 -1 6 -4 -4 -21 2 -36 13 -16 11 -29 18 -29 15z"/> <path d="M1446 1315 c3 -14 2 -25 -2 -24 -5 1 -20 -3 -34 -9 -14 -6 -18 -11 -10 -11 8 -1 27 5 42 13 24 13 27 12 30 -3 3 -15 5 -15 22 3 12 12 14 18 5 14 -15 -5 -51 26 -41 36 3 3 0 6 -7 6 -7 0 -9 -9 -5 -25z"/> <path d="M1325 1321 c3 -5 -3 -12 -12 -14 -14 -4 -13 -5 4 -6 27 -1 39 15 17 23 -8 3 -12 2 -9 -3z"/> <path d="M1217 1293 c-3 -16 1 -32 9 -40 8 -9 14 -10 14 -3 0 6 12 16 26 22 22 11 28 10 40 -7 8 -10 14 -13 14 -6 0 8 10 11 30 7 32 -5 44 17 15 28 -8 3 -15 1 -15 -4 0 -6 -10 -8 -22 -6 -13 3 -41 5 -63 5 -27 1 -35 4 -26 10 7 5 22 6 32 4 10 -3 19 0 19 6 0 6 -15 11 -34 11 -29 0 -34 -4 -39 -27z m33 -17 c0 -3 -4 -8 -10 -11 -5 -3 -10 -1 -10 4 0 6 5 11 10 11 6 0 10 -2 10 -4z"/> <path d="M1674 1308 c-24 -34 -45 -80 -40 -85 3 -4 -2 -16 -13 -27 -20 -22 -42 -79 -23 -61 6 6 12 17 14 25 3 13 35 50 45 50 1 0 3 -14 3 -31 0 -16 -4 -28 -9 -25 -5 3 -17 -6 -26 -20 -9 -15 -12 -23 -6 -20 22 14 10 -9 -14 -27 -28 -20 -30 -16 -14 16 10 20 10 20 -4 7 -8 -8 -18 -26 -22 -40 -3 -14 -3 -20 2 -15 4 6 16 11 26 11 14 2 15 -1 6 -12 -6 -8 -7 -14 -2 -14 5 0 20 23 33 50 13 28 27 50 31 50 6 0 39 56 39 67 0 1 -5 3 -11 3 -5 0 -7 -4 -4 -10 10 -16 -4 -11 -24 9 -17 17 -17 22 -5 42 7 13 16 31 20 39 4 8 12 18 18 22 8 5 8 8 0 8 -6 0 -16 -6 -20 -12z"/> <path d="M1153 1292 c28 -17 31 -32 7 -40 -7 -3 -10 0 -7 6 4 5 -1 16 -11 23 -14 11 -15 11 -5 0 6 -7 9 -20 6 -27 -3 -8 1 -14 11 -14 10 0 13 -6 9 -17 -5 -15 -3 -15 11 2 10 11 15 15 12 9 -3 -7 10 -24 29 -38 19 -15 35 -24 35 -19 0 4 7 -2 15 -14 8 -11 25 -23 37 -26 22 -6 22 -6 3 8 -35 25 -46 37 -41 42 3 3 12 1 19 -5 7 -7 22 -13 33 -15 10 -1 25 -6 33 -11 8 -5 16 -4 21 4 4 7 13 9 20 5 9 -5 11 -4 6 4 -4 7 -15 11 -24 10 -31 -3 -43 1 -37 11 4 6 11 8 16 5 5 -4 12 1 15 9 3 9 9 14 13 12 11 -7 51 13 51 26 0 9 -3 9 -10 -2 -5 -8 -10 -11 -10 -5 0 5 -5 4 -12 -3 -9 -9 -16 -8 -32 6 -18 15 -19 15 -8 0 15 -19 2 -31 -23 -22 -12 5 -16 2 -13 -12 2 -14 -2 -18 -17 -16 -11 2 -24 8 -30 14 -7 8 -5 9 7 5 23 -8 30 3 12 21 -13 12 -13 16 -2 23 10 7 8 9 -6 9 -13 0 -17 -5 -13 -20 3 -11 1 -23 -4 -26 -12 -7 -90 37 -84 47 7 11 -6 40 -15 34 -5 -3 -11 -1 -15 5 -3 5 -12 10 -18 10 -7 0 0 -8 16 -18z m98 -95 c-2 -13 -7 -12 -36 10 l-30 23 33 -13 c18 -8 33 -17 33 -20z"/> <path d="M1525 1300 c8 -13 -85 -101 -99 -93 -6 3 -8 3 -4 -2 4 -4 3 -14 -4 -22 -8 -11 -7 -12 5 -7 12 4 14 1 10 -14 -2 -11 0 -23 5 -26 6 -4 8 2 5 14 -3 11 0 20 6 20 6 0 11 5 11 11 0 5 -5 7 -12 3 -7 -4 -8 -3 -4 4 4 7 14 12 22 12 8 0 14 4 14 8 0 4 16 23 35 42 39 40 41 45 19 54 -8 3 -12 2 -9 -4z"/> <path d="M1774 1299 c-8 -14 14 -19 25 -6 8 10 7 14 -5 14 -8 0 -17 -4 -20 -8z"/> <path d="M1630 1279 c0 -5 5 -7 10 -4 6 3 10 8 10 11 0 2 -4 4 -10 4 -5 0 -10 -5 -10 -11z"/> <path d="M1116 1255 c4 -8 8 -15 10 -15 2 0 4 7 4 15 0 8 -4 15 -10 15 -5 0 -7 -7 -4 -15z"/> <path d="M1443 1252 c1 -14 5 -18 11 -12 7 7 6 14 -1 21 -9 9 -12 7 -10 -9z"/> <path d="M1831 1244 c12 -13 24 -22 27 -20 2 3 15 -7 29 -22 23 -26 24 -26 11 -2 -20 37 -38 55 -39 38 0 -7 -4 -4 -8 6 -4 11 -15 20 -25 22 -16 2 -15 -1 5 -22z"/> <path d="M1715 1214 c-7 -41 -5 -46 15 -34 8 6 10 10 4 10 -6 0 -9 13 -6 30 6 42 -4 37 -13 -6z"/> <path d="M945 1230 c-3 -5 -2 -10 4 -10 5 0 13 5 16 10 3 6 2 10 -4 10 -5 0 -13 -4 -16 -10z"/> <path d="M1063 1185 c0 -7 6 -11 14 -8 7 3 13 6 13 8 0 2 -6 5 -13 8 -8 3 -14 -1 -14 -8z"/> <path d="M1930 1186 c7 -7 13 -7 20 0 6 6 3 10 -10 10 -13 0 -16 -4 -10 -10z"/> <path d="M1101 1164 c0 -11 3 -14 6 -6 3 7 2 16 -1 19 -3 4 -6 -2 -5 -13z"/> <path d="M1904 1148 c0 -10 1 -18 3 -18 1 0 7 8 12 18 7 13 6 19 -2 19 -7 0 -13 -9 -13 -19z"/> <path d="M2000 1166 c0 -2 7 -9 15 -16 12 -10 15 -10 15 4 0 9 -7 16 -15 16 -8 0 -15 -2 -15 -4z"/> <path d="M885 1150 c3 -5 8 -10 11 -10 2 0 4 5 4 10 0 6 -5 10 -11 10 -5 0 -7 -4 -4 -10z"/> <path d="M2044 1138 c1 -13 -2 -29 -8 -36 -7 -9 -5 -12 5 -10 8 2 14 -5 14 -14 0 -22 12 -33 12 -10 0 9 -4 23 -10 30 -11 15 -2 16 23 2 13 -7 21 -7 25 0 3 5 -3 10 -13 10 -18 0 -51 28 -44 37 2 3 2 7 -1 9 -2 3 -4 -6 -3 -18z"/> <path d="M1400 1134 c0 -8 5 -12 10 -9 6 3 10 10 10 16 0 5 -4 9 -10 9 -5 0 -10 -7 -10 -16z"/> <path d="M1986 1141 c-4 -5 -2 -12 4 -16 5 -3 10 -3 10 2 0 4 4 1 10 -7 5 -8 11 -12 15 -9 3 3 -3 14 -14 23 -11 10 -21 13 -25 7z"/> <path d="M1323 1125 c-26 -11 -31 -28 -6 -18 13 5 15 2 10 -11 -4 -9 -3 -15 1 -13 4 3 13 -2 21 -10 11 -12 10 -15 -6 -19 -10 -3 -20 -15 -20 -26 -1 -12 -7 -24 -14 -28 -8 -6 -8 -10 2 -16 7 -4 14 -3 17 4 2 7 9 9 15 5 8 -4 8 -1 -1 9 -10 13 -9 18 5 29 15 12 16 12 11 -3 -4 -10 2 -23 15 -35 20 -17 21 -17 8 0 -8 10 -16 30 -17 43 -2 20 1 24 13 20 13 -5 14 -4 3 9 -10 12 -9 16 3 21 9 3 13 13 9 26 -5 20 -6 19 -19 -6 -8 -15 -18 -24 -23 -21 -6 4 -3 16 5 29 17 25 6 29 -32 11z"/> <path d="M1820 1126 c0 -2 7 -7 16 -10 8 -3 12 -2 9 4 -6 10 -25 14 -25 6z"/> <path d="M922 1107 c-8 -10 -6 -13 11 -14 12 0 16 1 9 4 -6 3 -10 9 -6 14 8 14 -2 11 -14 -4z"/> <path d="M1655 1109 c-4 -6 -5 -12 -2 -15 2 -3 7 2 10 11 7 17 1 20 -8 4z"/> <path d="M1940 1102 c0 -12 19 -26 26 -19 2 2 -2 10 -11 17 -9 8 -15 8 -15 2z"/> <path d="M1995 1091 c-3 -5 0 -13 6 -17 7 -4 9 -3 5 4 -3 5 0 13 6 15 9 4 10 6 1 6 -6 1 -14 -3 -18 -8z"/> <path d="M1757 1074 c3 -7 9 -14 14 -14 14 0 10 17 -5 23 -10 4 -13 1 -9 -9z"/> <path d="M924 1073 c4 -7 16 -18 28 -24 16 -8 19 -8 13 1 -4 7 -1 16 6 21 9 6 10 9 2 9 -6 0 -15 -5 -18 -10 -5 -8 -12 -7 -23 2 -12 10 -14 10 -8 1z"/> <path d="M1973 1045 c0 -11 4 -12 14 -4 7 6 13 13 13 15 0 2 -6 4 -13 4 -8 0 -14 -7 -14 -15z"/> <path d="M1630 1027 c-16 -13 -50 -70 -50 -83 0 -5 12 6 28 24 l27 33 40 -64 c65 -104 194 -294 211 -311 8 -9 12 -16 8 -16 -3 0 -1 -6 5 -13 19 -24 0 -27 -24 -4 -38 37 -61 53 -81 59 -10 3 -28 9 -39 13 -19 6 -19 6 1 -7 54 -34 132 -112 203 -203 81 -103 155 -175 179 -175 7 0 10 -4 7 -10 -3 -5 0 -10 7 -10 7 0 96 -9 198 -20 102 -11 219 -19 260 -18 l75 1 -60 7 c-61 7 -66 13 -8 10 22 -1 35 4 42 19 7 13 8 22 1 26 -5 3 -10 0 -10 -7 0 -10 -2 -10 -9 1 -5 8 -7 20 -4 28 3 8 -15 34 -44 62 -54 52 -171 136 -179 128 -3 -3 10 -15 28 -28 18 -13 35 -27 36 -31 2 -4 10 -8 18 -8 8 0 14 -5 14 -12 0 -6 3 -9 6 -6 3 3 28 -15 55 -40 27 -25 47 -47 45 -49 -5 -6 -58 31 -106 72 -19 16 -27 21 -17 9 9 -11 14 -24 10 -28 -5 -4 -3 -6 2 -4 14 4 75 -43 69 -54 -3 -5 -2 -8 3 -7 30 5 40 -2 35 -27 -3 -19 -9 -24 -23 -21 -11 3 -17 2 -14 -3 3 -4 -4 -10 -15 -13 -11 -3 -18 -2 -16 1 2 4 -17 7 -42 8 -120 2 -198 9 -209 20 -7 7 -21 11 -30 9 -10 -2 -22 -4 -26 -4 -5 -1 -6 -5 -3 -10 4 -5 -3 -7 -14 -4 -11 3 -20 13 -21 22 0 9 -3 11 -5 5 -3 -8 -16 -8 -44 0 -33 8 -40 14 -40 36 0 34 -15 57 -23 36 -8 -21 -26 -20 -34 1 -4 9 -14 24 -22 34 -9 10 -24 28 -33 41 -10 13 -28 36 -40 52 l-22 29 21 -5 c12 -3 30 0 41 8 11 7 22 10 26 7 3 -3 6 -1 6 5 0 12 39 28 55 23 28 -9 65 -9 70 -1 3 6 18 10 32 10 15 0 38 10 52 22 l24 23 -26 -50 -27 -50 35 39 c19 22 35 43 35 47 0 12 -33 20 -40 9 -4 -6 -15 -8 -25 -4 -11 5 -16 4 -12 -3 8 -12 -75 -33 -128 -31 l-40 1 31 13 c17 7 34 20 38 29 3 9 10 13 16 10 5 -3 7 0 5 7 -3 8 8 21 25 31 16 10 30 22 30 26 0 5 12 16 26 26 20 13 28 14 40 5 7 -7 19 -10 26 -7 7 2 33 -14 58 -36 25 -22 38 -35 29 -29 -12 9 -16 9 -16 -3 0 -8 3 -13 5 -10 3 3 35 -24 71 -60 36 -35 81 -75 99 -88 18 -14 41 -34 51 -46 22 -25 28 -26 28 -7 0 8 -5 14 -11 13 -6 -1 -10 4 -8 11 1 8 -1 11 -6 8 -5 -3 -20 6 -32 19 -13 14 -29 25 -35 25 -6 0 -26 16 -45 35 -24 25 -29 35 -18 35 33 0 10 32 -58 81 -38 28 -76 55 -84 59 -12 7 -8 16 25 49 21 23 36 41 32 41 -11 0 -69 -30 -87 -45 -8 -7 -28 -15 -44 -19 -16 -4 -44 -22 -61 -39 -66 -65 -134 -117 -140 -107 -4 6 -16 8 -27 4 -13 -4 -18 -2 -14 4 3 6 2 13 -4 17 -5 3 -10 -2 -10 -12 0 -15 -2 -15 -9 -3 -6 8 -8 17 -6 20 2 3 -9 6 -23 6 -15 1 -21 -1 -14 -3 6 -3 12 -11 12 -18 0 -12 44 -28 66 -24 19 3 34 -1 34 -11 0 -6 -10 -9 -22 -7 -13 2 -17 2 -10 0 14 -5 15 -13 2 -33 -7 -11 -14 -12 -27 -4 -24 14 -84 104 -77 115 3 5 1 9 -5 9 -5 0 -27 26 -47 58 -57 88 -116 174 -138 203 -32 40 -60 93 -57 107 2 15 0 15 -19 -1z m766 -402 c4 -8 10 -13 14 -10 4 3 13 -2 19 -9 24 -28 -7 -24 -34 4 -16 17 -23 30 -17 30 7 0 15 -7 18 -15z m-466 -76 c0 -6 -4 -7 -10 -4 -5 3 -10 11 -10 16 0 6 5 7 10 4 6 -3 10 -11 10 -16z m170 -211 c0 -16 -3 -19 -11 -11 -6 6 -8 16 -5 22 11 17 16 13 16 -11z"/> <path d="M1720 1023 c6 -13 15 -23 20 -23 6 0 10 -5 10 -11 0 -6 -7 -9 -15 -6 -8 4 -17 1 -21 -5 -4 -7 -3 -8 4 -4 7 4 12 2 12 -4 0 -22 47 -59 69 -53 11 3 19 9 16 13 -3 5 -13 6 -23 3 -22 -5 -59 31 -42 42 6 4 17 -1 24 -11 10 -13 56 -29 56 -19 0 1 -21 17 -47 35 -27 19 -54 41 -61 50 -11 13 -11 11 -2 -7z"/> <path d="M2053 1022 c10 -10 14 -22 10 -26 -4 -4 0 -4 10 0 12 4 17 1 18 -12 0 -12 3 -14 6 -6 3 7 -7 24 -22 37 -30 29 -46 33 -22 7z"/> <path d="M950 1026 c0 -2 8 -10 18 -17 15 -13 16 -12 3 4 -13 16 -21 21 -21 13z"/> <path d="M1680 1010 c11 -11 22 -20 25 -20 3 0 0 9 -7 20 -7 11 -18 20 -25 20 -8 0 -5 -8 7 -20z"/> <path d="M2100 1022 c0 -7 5 -12 10 -12 6 0 10 -6 9 -12 -3 -25 1 -38 12 -38 8 0 8 4 0 14 -9 10 -9 15 -1 18 7 2 3 11 -9 22 -12 11 -21 14 -21 8z"/> <path d="M825 1010 c-3 -5 1 -10 10 -10 9 0 13 5 10 10 -3 6 -8 10 -10 10 -2 0 -7 -4 -10 -10z"/> <path d="M1871 1006 c-14 -17 -3 -26 25 -21 10 2 24 4 29 5 11 1 -24 30 -36 30 -3 0 -12 -6 -18 -14z m24 -6 c-3 -5 -12 -10 -18 -10 -7 0 -6 4 3 10 19 12 23 12 15 0z"/> <path d="M772 994 c10 -10 20 -16 22 -13 3 3 -5 11 -17 18 -21 13 -21 12 -5 -5z"/> <path d="M1261 989 c12 -23 15 -23 22 -5 3 8 -2 16 -14 19 -16 4 -17 2 -8 -14z"/> <path d="M1506 993 c-6 -14 -5 -15 5 -6 7 7 10 15 7 18 -3 3 -9 -2 -12 -12z"/> <path d="M2035 990 c3 -5 8 -10 11 -10 2 0 4 5 4 10 0 6 -5 10 -11 10 -5 0 -7 -4 -4 -10z"/> <path d="M831 977 c16 -18 49 -14 49 5 0 6 -6 5 -15 -2 -12 -10 -18 -10 -32 1 -17 12 -17 12 -2 -4z"/> <path d="M1930 980 c-13 -8 -12 -10 3 -10 9 0 17 5 17 10 0 12 -1 12 -20 0z"/> <path d="M1965 970 c3 -5 11 -10 16 -10 6 0 7 5 4 10 -3 6 -11 10 -16 10 -6 0 -7 -4 -4 -10z"/> <path d="M1316 953 c-6 -14 -5 -15 5 -6 7 7 10 15 7 18 -3 3 -9 -2 -12 -12z"/> <path d="M1540 949 c0 -5 5 -7 10 -4 6 3 10 8 10 11 0 2 -4 4 -10 4 -5 0 -10 -5 -10 -11z"/> <path d="M2086 948 c3 -5 10 -6 15 -3 13 9 11 12 -6 12 -8 0 -12 -4 -9 -9z"/> <path d="M800 941 c0 -5 7 -12 16 -15 14 -5 15 -4 4 9 -14 17 -20 19 -20 6z"/> <path d="M1470 940 c-8 -5 -12 -12 -9 -15 4 -3 12 1 19 10 14 17 11 19 -10 5z"/> <path d="M1511 936 c-9 -10 -8 -15 2 -19 8 -3 13 3 14 14 2 23 -1 24 -16 5z"/> <path d="M1710 941 c0 -10 29 -36 34 -30 1 2 -6 12 -16 22 -10 9 -18 13 -18 8z"/> <path d="M766 932 c-3 -6 -1 -14 5 -17 15 -10 25 3 12 16 -7 7 -13 7 -17 1z"/> <path d="M840 931 c0 -6 4 -13 10 -16 6 -3 7 1 4 9 -7 18 -14 21 -14 7z"/> <path d="M1570 924 c0 -6 -8 -19 -17 -30 -22 -24 -56 -84 -49 -84 9 0 77 112 72 118 -3 3 -6 1 -6 -4z"/> <path d="M1179 915 c-1 -3 -2 -8 -3 -12 -1 -5 -5 -13 -9 -20 -4 -6 -3 -14 3 -18 12 -7 11 -8 14 28 3 23 -1 38 -5 22z"/> <path d="M635 890 c-10 -11 -22 -17 -28 -13 -5 3 -7 1 -3 -5 3 -5 0 -12 -6 -15 -7 -2 -10 -8 -6 -12 5 -5 17 0 29 11 21 19 21 19 8 -8 -6 -15 -15 -25 -19 -23 -4 3 -7 -3 -6 -13 0 -9 -4 -16 -11 -15 -7 2 -10 -4 -7 -12 5 -11 1 -14 -12 -9 -15 5 -16 4 -4 -4 8 -6 18 -8 22 -6 4 3 8 1 8 -4 0 -6 -13 -15 -30 -21 -16 -5 -30 -11 -30 -13 0 -2 27 -3 60 -3 59 -1 77 9 43 22 -9 4 -19 1 -21 -5 -2 -7 -8 -10 -12 -7 -5 3 -5 18 1 33 6 15 11 29 11 32 0 3 5 4 11 2 7 -2 9 0 5 4 -4 4 0 13 10 21 16 13 16 14 0 9 -12 -3 -15 -1 -11 9 3 8 10 12 15 9 6 -4 6 1 -1 13 -10 20 -6 33 11 33 5 0 6 -5 2 -12 -4 -7 -3 -8 4 -4 7 4 12 11 12 17 0 16 -26 10 -45 -11z"/> <path d="M826 902 c-3 -5 1 -9 9 -9 8 0 12 4 9 9 -3 4 -7 8 -9 8 -2 0 -6 -4 -9 -8z"/> <path d="M1316 901 c-3 -4 5 -8 16 -8 11 -1 29 -10 39 -19 11 -9 19 -12 19 -7 0 21 -64 50 -74 34z"/> <path d="M1755 899 c-4 -5 2 -6 11 -2 12 4 15 3 10 -5 -4 -7 -2 -12 4 -12 6 0 9 -10 7 -22 -2 -13 -2 -17 0 -10 3 6 11 12 19 12 9 0 13 8 10 22 -2 16 -11 23 -29 25 -15 1 -29 -2 -32 -8z m52 -14 c0 -8 -4 -12 -9 -9 -4 3 -8 9 -8 15 0 5 4 9 8 9 5 0 9 -7 9 -15z"/> <path d="M2063 895 c0 -8 4 -12 8 -9 4 2 12 -3 17 -12 5 -9 15 -15 21 -13 7 3 0 14 -17 26 -20 15 -29 17 -29 8z"/> <path d="M966 892 c-3 -5 1 -9 9 -9 8 0 12 4 9 9 -3 4 -7 8 -9 8 -2 0 -6 -4 -9 -8z"/> <path d="M1830 892 c0 -4 16 -9 36 -10 20 -2 45 -7 55 -12 10 -6 20 -6 23 -1 3 5 -14 14 -39 20 -52 13 -75 14 -75 3z"/> <path d="M2174 881 c7 -11 46 -35 46 -28 0 3 -12 12 -26 22 -15 9 -23 12 -20 6z"/> <path d="M2156 867 c3 -10 9 -15 12 -12 3 3 0 11 -7 18 -10 9 -11 8 -5 -6z"/> <path d="M2243 865 c0 -8 4 -12 9 -9 5 3 6 10 3 15 -9 13 -12 11 -12 -6z"/> <path d="M935 847 c10 -15 20 -25 23 -22 3 3 -5 16 -17 28 l-23 22 17 -28z"/> <path d="M1287 856 c-4 -10 -1 -13 8 -9 8 3 12 9 9 14 -7 12 -11 11 -17 -5z"/> <path d="M1837 864 c-3 -3 -3 -12 0 -20 4 -12 26 -19 83 -27 8 -2 22 -7 30 -12 28 -17 84 -45 86 -42 14 13 -87 62 -148 72 -50 8 -63 29 -15 23 20 -2 33 0 31 4 -6 9 -58 11 -67 2z"/> <path d="M1960 860 c0 -6 7 -10 15 -10 8 0 15 2 15 4 0 2 -7 6 -15 10 -8 3 -15 1 -15 -4z"/> <path d="M900 856 c0 -2 8 -10 18 -17 15 -13 16 -12 3 4 -13 16 -21 21 -21 13z"/> <path d="M1920 850 c0 -5 15 -12 33 -16 53 -12 77 -13 71 -3 -3 5 -9 7 -14 4 -5 -3 -27 1 -49 9 -23 7 -41 10 -41 6z"/> <path d="M2064 835 c3 -9 0 -15 -9 -15 -7 0 -17 -5 -21 -12 -5 -8 0 -9 14 -6 12 4 22 2 22 -3 0 -5 -5 -9 -11 -9 -7 0 -8 -7 -4 -17 4 -10 8 -25 10 -33 2 -8 8 -29 14 -47 5 -17 6 -35 3 -40 -4 -4 14 10 40 32 25 22 47 47 47 55 1 9 -21 37 -47 63 -49 48 -69 59 -58 32z m36 -28 c0 -7 11 -21 25 -31 14 -10 25 -25 25 -33 0 -20 -46 -67 -54 -55 -3 5 6 21 19 35 22 21 23 26 10 37 -9 7 -15 8 -15 2 0 -6 4 -12 8 -14 4 -1 -1 -12 -12 -22 -19 -19 -19 -19 -14 2 4 13 1 22 -5 22 -6 0 -2 7 9 15 15 11 16 14 4 15 -17 0 -26 40 -9 40 5 0 9 -6 9 -13z"/> <path d="M2139 816 c36 -37 58 -51 27 -17 -11 12 -15 25 -10 33 4 7 4 10 -1 6 -4 -4 -17 -2 -29 4 -14 7 -10 -1 13 -26z"/> <path d="M2196 828 c3 -5 10 -6 15 -3 13 9 11 12 -6 12 -8 0 -12 -4 -9 -9z"/> <path d="M900 822 c0 -5 7 -15 15 -22 8 -7 15 -9 15 -6 0 4 -7 14 -15 22 -8 9 -15 11 -15 6z"/> <path d="M2176 817 c3 -10 9 -15 12 -12 3 3 0 11 -7 18 -10 9 -11 8 -5 -6z"/> <path d="M985 800 c10 -11 20 -20 23 -20 3 0 -3 9 -13 20 -10 11 -20 20 -23 20 -3 0 3 -9 13 -20z"/> <path d="M1040 813 c0 -5 9 -18 20 -28 11 -10 20 -16 20 -13 0 3 -9 15 -20 28 -11 13 -20 19 -20 13z"/> <path d="M1855 796 c25 -16 34 -25 23 -26 -10 0 -18 -5 -18 -10 0 -7 6 -7 19 0 13 7 22 7 26 0 8 -13 25 -13 25 0 0 6 -6 9 -12 8 -7 -2 -12 3 -10 10 1 6 -1 11 -5 11 -5 -1 -15 -1 -23 1 -11 1 -9 4 5 10 18 8 17 9 -7 9 -14 1 -35 4 -45 7 -10 3 0 -5 22 -20z"/> <path d="M707 803 c-4 -3 -7 -11 -7 -17 0 -6 5 -5 12 2 6 6 9 14 7 17 -3 3 -9 2 -12 -2z"/> <path d="M1025 761 c0 -26 2 -28 27 -21 14 5 29 6 32 2 3 -3 6 0 6 6 0 6 -12 10 -27 9 -15 -1 -28 3 -28 10 0 6 -2 14 -5 17 -3 3 -6 -8 -5 -23z"/> <path d="M1827 779 c7 -7 15 -10 18 -7 3 3 -2 9 -12 12 -14 6 -15 5 -6 -5z"/> <path d="M1937 778 c7 -8 11 -17 8 -19 -2 -3 5 -5 15 -5 25 0 25 0 -7 22 -20 13 -25 13 -16 2z"/> <path d="M633 767 c-3 -6 -1 -7 4 -4 6 4 14 -1 18 -11 6 -16 7 -16 20 1 8 12 15 14 20 8 8 -14 25 -14 25 -1 0 6 -3 9 -7 9 -5 -1 -10 0 -13 1 -17 7 -62 5 -67 -3z"/> <path d="M1230 776 c0 -2 7 -7 16 -10 8 -3 12 -2 9 4 -6 10 -25 14 -25 6z"/> <path d="M1278 763 c7 -3 16 -2 19 1 4 3 -2 6 -13 5 -11 0 -14 -3 -6 -6z"/> <path d="M1221 757 c2 -1 15 -11 29 -22 l25 -20 -19 23 c-11 12 -24 22 -29 22 -6 0 -8 -1 -6 -3z"/> <path d="M1445 730 c-9 -16 -13 -30 -11 -30 3 0 12 14 21 30 9 17 13 30 11 30 -3 0 -12 -13 -21 -30z"/> <path d="M2000 740 c10 -7 -1 -9 -38 -6 -31 1 -49 -1 -44 -6 5 -5 16 -10 23 -12 8 -1 33 -12 56 -24 52 -27 66 -28 34 -2 -12 11 -27 17 -32 14 -5 -3 -9 0 -9 5 0 15 13 14 36 -4 10 -8 26 -14 34 -14 8 0 -1 8 -20 19 -27 15 -31 19 -15 20 20 1 20 1 0 10 -27 12 -43 12 -25 0z"/> <path d="M946 684 c-26 -30 -51 -53 -54 -50 -3 3 2 14 11 24 24 27 22 51 -2 26 -10 -10 -16 -22 -14 -27 8 -14 -27 -19 -45 -6 -12 10 -12 7 3 -10 l20 -24 -25 13 c-23 12 -24 12 -11 -3 12 -16 8 -22 -12 -18 -5 1 -6 -3 -2 -9 4 -6 2 -17 -5 -25 -6 -8 -7 -16 -2 -19 11 -7 34 17 30 30 -2 5 0 9 3 9 4 0 16 9 28 19 12 11 21 15 21 9 0 -5 -12 -20 -26 -34 -15 -13 -33 -38 -40 -56 -16 -38 -17 -43 -5 -43 5 0 14 15 20 33 6 17 30 53 54 79 23 26 55 63 71 82 16 20 33 33 37 30 5 -3 6 2 3 10 -3 9 -7 16 -8 16 0 0 -23 -25 -50 -56z"/> <path d="M1860 731 c0 -6 7 -11 16 -11 13 0 14 -3 5 -14 -10 -12 -3 -18 36 -36 26 -12 61 -28 76 -36 21 -10 34 -11 48 -4 10 6 19 13 19 16 0 2 -9 0 -19 -6 -12 -6 -22 -6 -26 -1 -3 5 3 12 12 15 11 3 8 4 -7 3 -15 -1 -24 3 -23 10 2 9 -4 10 -20 4 -15 -6 -31 -4 -47 5 -29 16 -18 19 13 3 19 -9 19 -8 -2 9 -41 33 -81 54 -81 43z m40 -31 c0 -5 -5 -10 -11 -10 -5 0 -7 5 -4 10 3 6 8 10 11 10 2 0 4 -4 4 -10z"/> <path d="M680 726 c0 -2 11 -6 25 -8 13 -3 22 -1 19 3 -5 9 -44 13 -44 5z"/> <path d="M515 711 c-3 -5 -2 -12 3 -15 5 -3 9 1 9 9 0 17 -3 19 -12 6z"/> <path d="M1150 713 c0 -4 5 -15 10 -23 8 -13 10 -13 10 2 0 9 -4 20 -10 23 -5 3 -10 3 -10 -2z"/> <path d="M559 690 c13 -11 17 -20 10 -20 -7 0 -10 -3 -6 -6 9 -9 40 12 43 30 3 19 -7 21 -25 4 -11 -10 -14 -10 -18 0 -3 6 -10 12 -16 12 -7 -1 -1 -10 12 -20z"/> <path d="M620 700 c0 -5 7 -10 16 -10 8 0 12 5 9 10 -3 6 -10 10 -16 10 -5 0 -9 -4 -9 -10z"/> <path d="M667 696 c-4 -11 -1 -16 11 -16 17 -1 52 -22 52 -33 0 -4 -8 -4 -17 0 -10 3 -6 -4 10 -16 25 -21 28 -41 6 -41 -6 0 -7 5 -3 12 4 7 3 8 -4 4 -18 -11 -14 -23 6 -28 12 -3 24 2 31 13 7 13 8 19 0 19 -5 0 -7 5 -3 11 4 7 10 7 16 1 6 -6 4 -21 -6 -40 -23 -44 -20 -49 9 -18 29 32 30 39 9 61 -13 13 -19 13 -32 3 -16 -14 -16 -7 3 47 6 18 5 18 -5 3 -12 -19 -41 -13 -34 7 7 17 -12 29 -22 14 -5 -8 -8 -8 -14 1 -5 8 -9 7 -13 -4z"/> <path d="M790 698 c0 -6 -7 -19 -15 -28 -14 -16 -14 -18 3 -23 11 -2 26 -1 33 4 10 6 11 9 2 9 -7 0 -13 4 -13 9 0 5 10 7 23 5 22 -5 22 -5 -1 6 -13 5 -20 14 -17 20 3 5 1 10 -4 10 -6 0 -11 -5 -11 -12z"/> <path d="M2207 674 c-20 -20 -41 -33 -46 -30 -5 4 -13 1 -17 -5 -5 -8 -3 -9 6 -4 10 6 12 4 7 -8 -5 -14 -3 -15 14 -4 32 18 88 76 80 82 -4 2 -24 -12 -44 -31z"/> <path d="M609 678 c0 -2 -2 -11 -4 -21 -3 -18 -3 -18 16 -1 10 9 19 19 19 21 0 3 -30 4 -31 1z"/> <path d="M1170 655 c7 -8 17 -15 22 -15 5 0 3 7 -6 15 -8 8 -18 15 -22 15 -3 0 -1 -7 6 -15z"/> <path d="M1213 657 c14 -11 15 -16 5 -21 -7 -3 -3 -3 8 -1 14 4 24 0 28 -10 5 -14 -5 -20 -27 -16 -5 1 -6 -3 -2 -9 3 -6 10 -8 15 -5 5 3 15 -3 22 -15 7 -11 16 -20 21 -20 4 0 0 11 -9 25 -17 27 -5 35 16 10 7 -8 17 -12 22 -9 6 4 4 11 -6 16 -9 5 -13 14 -10 20 5 7 2 8 -5 4 -7 -5 -20 -1 -29 7 -9 8 -28 20 -42 26 -23 11 -23 11 -7 -2z"/> <path d="M1410 651 c0 -7 -5 -9 -12 -5 -7 5 -8 3 -3 -5 5 -9 10 -10 18 -2 6 6 8 14 4 18 -4 3 -7 1 -7 -6z"/> <path d="M2227 647 c-3 -7 3 -13 14 -14 12 -1 16 3 12 13 -6 18 -19 18 -26 1z"/> <path d="M2315 649 c-4 -6 -5 -12 -2 -15 2 -3 7 2 10 11 7 17 1 20 -8 4z"/> <path d="M678 638 c-4 -9 -2 -19 5 -22 7 -2 4 -5 -5 -5 -10 -1 -18 -5 -18 -11 0 -15 19 -12 36 5 9 8 11 15 5 15 -5 0 -11 8 -13 18 -3 16 -4 16 -10 0z"/> <path d="M1751 611 c-7 -5 -11 -13 -8 -18 7 -11 -91 -68 -100 -59 -3 3 -17 -3 -31 -14 -13 -11 -28 -17 -32 -15 -5 3 -12 0 -16 -6 -4 -8 -9 -7 -15 2 -7 11 -9 11 -9 -2 0 -16 -70 -69 -91 -69 -6 0 -40 -16 -75 -35 -36 -19 -72 -32 -82 -29 -16 5 -15 5 1 -6 14 -9 27 -7 60 9 23 10 87 40 142 65 247 114 306 146 303 164 -4 19 -27 26 -47 13z"/> <path d="M2290 585 c0 -8 4 -15 8 -15 5 0 31 -23 58 -50 27 -28 65 -62 84 -77 l35 -26 -35 36 c-19 19 -35 39 -35 44 0 9 -99 103 -109 103 -3 0 -6 -7 -6 -15z"/> <path d="M2465 583 c1 -10 8 -17 14 -15 6 1 10 -3 9 -10 -2 -7 4 -12 13 -13 9 0 38 -19 64 -43 27 -24 61 -50 77 -58 18 -9 26 -20 22 -27 -4 -7 -4 -9 1 -5 4 4 14 0 21 -10 17 -22 18 -46 2 -36 -9 6 -9 3 0 -9 9 -10 11 -21 4 -32 -12 -22 -24 -21 -34 2 -7 16 -8 16 -5 -2 3 -23 32 -32 52 -15 9 7 15 29 15 50 0 31 -7 45 -37 73 -36 34 -210 167 -218 167 -2 0 -2 -8 0 -17z"/> <path d="M607 579 c8 -8 16 -8 30 0 16 9 14 10 -11 11 -22 0 -27 -3 -19 -11z"/> <path d="M640 561 c0 -9 85 -70 102 -72 4 -1 13 -2 18 -3 6 0 20 -12 33 -26 20 -22 83 -38 71 -18 -3 4 -14 8 -24 8 -10 0 -31 11 -46 25 -21 20 -24 26 -11 31 17 6 16 36 -1 42 -6 2 -8 -5 -5 -19 5 -17 3 -20 -7 -14 -8 5 -11 4 -6 -3 3 -6 2 -13 -4 -17 -6 -3 -10 4 -11 17 0 13 -3 17 -6 11 -2 -7 -12 -13 -20 -13 -10 0 -13 6 -9 16 4 9 2 13 -5 8 -6 -3 -24 3 -40 15 -16 12 -29 17 -29 12z"/> <path d="M1320 551 c-5 -11 -10 -30 -9 -43 0 -19 2 -18 12 10 7 18 19 37 27 42 13 8 12 10 -2 10 -10 0 -22 -9 -28 -19z"/> <path d="M2195 550 c-3 -5 -1 -10 4 -10 6 0 11 5 11 10 0 6 -2 10 -4 10 -3 0 -8 -4 -11 -10z"/> <path d="M589 537 c7 -9 10 -17 6 -17 -5 0 1 -8 12 -17 11 -10 18 -24 16 -30 -3 -7 2 -13 11 -13 9 0 16 -4 16 -8 0 -5 6 -9 14 -9 11 0 12 4 3 18 -6 9 -17 14 -25 11 -10 -3 -13 -1 -8 6 3 6 2 13 -4 17 -6 4 -8 9 -6 13 2 4 -8 16 -23 27 -20 15 -23 15 -12 2z"/> <path d="M2060 540 c-8 -5 -12 -12 -9 -15 4 -3 12 1 19 10 14 17 11 19 -10 5z"/> <path d="M2410 536 c0 -2 8 -10 18 -17 15 -13 16 -12 3 4 -13 16 -21 21 -21 13z"/> <path d="M2080 520 c-9 -6 -10 -10 -3 -10 6 0 15 5 18 10 8 12 4 12 -15 0z"/> <path d="M640 511 c0 -6 4 -13 10 -16 6 -3 7 1 4 9 -7 18 -14 21 -14 7z"/> <path d="M1106 507 c3 -10 9 -15 12 -12 3 3 0 11 -7 18 -10 9 -11 8 -5 -6z"/> <path d="M2158 508 c5 -5 16 -8 23 -6 8 3 3 7 -10 11 -17 4 -21 3 -13 -5z"/> <path d="M546 491 c-4 -6 -11 -9 -16 -6 -10 6 -25 -34 -16 -42 3 -4 6 1 6 10 0 9 10 17 25 19 18 2 22 7 16 17 -6 9 -11 10 -15 2z"/> <path d="M585 490 c3 -5 8 -10 11 -10 2 0 4 5 4 10 0 6 -5 10 -11 10 -5 0 -7 -4 -4 -10z"/> <path d="M677 493 c-4 -3 1 -15 10 -26 10 -10 17 -22 15 -26 -2 -3 4 -7 12 -9 25 -5 19 14 -10 33 -21 13 -24 19 -13 26 8 5 9 9 3 9 -6 0 -14 -3 -17 -7z"/> <path d="M738 453 c22 -31 21 -38 -3 -33 -5 1 -7 -1 -3 -5 3 -4 8 -5 11 -3 3 2 13 -7 23 -19 14 -16 24 -19 39 -13 18 8 17 9 -8 9 -23 1 -27 5 -24 24 3 15 -5 29 -27 47 l-31 25 23 -32z"/> <path d="M911 465 c-1 -22 44 -55 76 -55 10 0 -1 9 -24 19 -22 11 -43 27 -46 38 -4 16 -5 16 -6 -2z"/> <path d="M972 471 c-11 -7 -11 -9 0 -14 9 -3 15 1 15 9 0 8 -1 14 -1 14 -1 0 -7 -4 -14 -9z"/> <path d="M1126 450 c3 -14 11 -32 16 -40 6 -10 7 -7 2 10 -3 14 -11 32 -16 40 -6 10 -7 7 -2 -10z"/> <path d="M1101 444 c0 -11 3 -14 6 -6 3 7 2 16 -1 19 -3 4 -6 -2 -5 -13z"/> <path d="M583 429 c-1 -10 3 -19 8 -19 6 0 8 4 5 9 -4 5 -1 11 6 13 8 3 7 6 -3 10 -10 4 -15 -1 -16 -13z"/> <path d="M450 434 c0 -2 9 -8 19 -13 14 -8 20 -7 24 2 3 7 -5 13 -19 13 -13 1 -24 0 -24 -2z"/> <path d="M1050 420 c-9 -6 -10 -10 -3 -10 6 0 15 5 18 10 8 12 4 12 -15 0z"/> <path d="M1540 425 c0 -8 29 -12 39 -5 9 5 4 8 -13 8 -14 0 -26 -2 -26 -3z"/> <path d="M1648 423 c7 -3 16 -2 19 1 4 3 -2 6 -13 5 -11 0 -14 -3 -6 -6z"/> <path d="M710 411 c0 -7 7 -19 15 -27 19 -20 19 -5 0 20 -9 11 -15 14 -15 7z"/> <path d="M800 410 c0 -6 7 -10 15 -10 8 0 15 2 15 4 0 2 -7 6 -15 10 -8 3 -15 1 -15 -4z"/> <path d="M2420 399 c0 -5 5 -7 10 -4 6 3 10 8 10 11 0 2 -4 4 -10 4 -5 0 -10 -5 -10 -11z"/> <path d="M2580 404 c0 -1 8 -8 17 -15 14 -12 16 -12 9 0 -6 9 -5 12 5 9 7 -2 16 -14 19 -26 4 -16 9 -19 20 -12 11 7 11 10 2 10 -9 0 -11 7 -7 23 4 15 3 18 -3 8 -6 -8 -12 -9 -16 -3 -5 8 -46 14 -46 6z"/> <path d="M1152 363 c15 -15 30 -25 33 -22 7 8 -33 49 -48 49 -6 0 1 -12 15 -27z"/> <path d="M808 363 c7 -3 16 -2 19 1 4 3 -2 6 -13 5 -11 0 -14 -3 -6 -6z"/> <path d="M1210 350 c-9 -6 -10 -10 -3 -10 6 0 15 5 18 10 8 12 4 12 -15 0z"/> <path d="M2382 351 c-11 -7 -10 -9 3 -14 9 -4 14 -3 10 2 -3 5 1 12 7 14 7 3 9 6 3 6 -5 0 -16 -3 -23 -8z"/> <path d="M2270 345 c0 -5 5 -17 10 -25 5 -8 10 -10 10 -5 0 6 -5 17 -10 25 -5 8 -10 11 -10 5z"/> <path d="M2048 273 c6 -2 18 -2 25 0 6 3 1 5 -13 5 -14 0 -19 -2 -12 -5z"/> <path d="M2490 270 c0 -6 7 -10 15 -10 8 0 15 2 15 4 0 2 -7 6 -15 10 -8 3 -15 1 -15 -4z"/> </g> </svg> 